<svg width="183" height="35" fill="none" xmlns="http://www.w3.org/2000/svg"><path d="M1.064 25.643c-.322 0-.58-.096-.774-.29-.193-.194-.29-.452-.29-.774V1.549C0 1.225.097.967.29.773c.194-.193.452-.29.774-.29h.823c.323 0 .58.097.774.29.194.194.29.452.29.774v1.694C3.79 2.177 4.758 1.37 5.854.822 6.984.275 8.322 0 9.87 0c3.613 0 6.193 1.516 7.742 4.548.774-1.387 1.87-2.484 3.29-3.29C22.353.419 23.998 0 25.837 0c2.677 0 4.854.92 6.532 2.758 1.677 1.806 2.516 4.387 2.516 7.741v14.08c0 .322-.097.58-.29.774-.194.194-.452.29-.775.29h-.822c-.323 0-.581-.096-.775-.29-.193-.194-.29-.452-.29-.774V10.983c0-2.935-.613-5.032-1.838-6.29-1.194-1.258-2.774-1.887-4.742-1.887-1.742 0-3.258.645-4.548 1.936C19.547 6 18.918 8.08 18.918 10.983V24.58c0 .322-.097.58-.29.774-.194.194-.452.29-.774.29h-.823c-.323 0-.58-.096-.774-.29-.194-.194-.29-.452-.29-.774V10.983c0-2.903-.63-4.983-1.887-6.241-1.258-1.29-2.823-1.936-4.694-1.936-1.741 0-3.257.645-4.548 1.936C3.58 6 2.951 8.064 2.951 10.935v13.644c0 .322-.096.58-.29.774-.193.194-.451.29-.774.29h-.823zm52.203.484c-3.065 0-5.532-1-7.403-3-1.87-2.032-2.935-4.741-3.193-8.128l-.048-1.936.048-1.935c.258-3.354 1.306-6.048 3.145-8.08C47.686 1.016 50.17 0 53.266 0c3.355 0 5.968 1.113 7.839 3.338 1.903 2.226 2.855 5.274 2.855 9.145v.726c0 .322-.113.58-.34.774-.193.193-.45.29-.773.29H45.622v.484a11.15 11.15 0 001.016 4.258c.645 1.29 1.532 2.338 2.661 3.145 1.13.774 2.452 1.16 3.968 1.16 1.774 0 3.21-.338 4.306-1.015 1.129-.71 1.935-1.42 2.42-2.13.29-.386.5-.628.628-.725.161-.097.436-.145.823-.145h.774c.29 0 .532.08.725.242a.78.78 0 01.29.629c0 .677-.435 1.5-1.305 2.468-.84.935-2.017 1.757-3.532 2.467-1.517.677-3.226 1.016-5.13 1.016zm7.741-14.563v-.194c0-2.484-.71-4.532-2.129-6.145-1.387-1.612-3.258-2.419-5.612-2.419-2.355 0-4.226.807-5.613 2.42-1.354 1.612-2.032 3.66-2.032 6.144v.194h15.386zm20.316 14.563c-3.354 0-5.95-.968-7.79-2.903-1.838-1.968-2.806-4.71-2.902-8.225l-.049-1.936.049-1.935c.096-3.516 1.064-6.241 2.903-8.177C75.373.984 77.97 0 81.325 0c2.128 0 3.934.387 5.418 1.161 1.516.742 2.645 1.71 3.387 2.903.742 1.161 1.145 2.371 1.21 3.629.032.29-.065.548-.29.774-.226.194-.484.29-.775.29h-.677c-.323 0-.565-.064-.726-.193-.129-.161-.274-.436-.435-.823-.645-1.774-1.549-3.032-2.71-3.774-1.161-.774-2.629-1.16-4.403-1.16-2.322 0-4.177.709-5.564 2.128-1.355 1.387-2.08 3.532-2.177 6.435l-.048 1.694.048 1.693c.097 2.903.823 5.064 2.177 6.483 1.387 1.387 3.242 2.08 5.564 2.08 1.774 0 3.242-.37 4.403-1.112 1.161-.774 2.065-2.048 2.71-3.822.161-.387.306-.645.435-.774.161-.162.403-.242.726-.242h.677c.29 0 .549.113.774.338a.79.79 0 01.29.726c-.064 1.258-.467 2.484-1.209 3.677-.742 1.162-1.87 2.13-3.387 2.903-1.483.742-3.29 1.113-5.419 1.113zm27.198 0c-3.064 0-5.532-1-7.402-3-1.871-2.032-2.936-4.741-3.194-8.128l-.048-1.936.048-1.935c.258-3.354 1.307-6.048 3.145-8.08C102.942 1.016 105.426 0 108.522 0c3.355 0 5.968 1.113 7.838 3.338 1.904 2.226 2.855 5.274 2.855 9.145v.726c0 .322-.113.58-.339.774-.193.193-.451.29-.774.29h-17.224v.484a11.14 11.14 0 001.016 4.258c.645 1.29 1.532 2.338 2.661 3.145 1.129.774 2.451 1.16 3.967 1.16 1.774 0 3.21-.338 4.306-1.015 1.129-.71 1.936-1.42 2.42-2.13.29-.386.5-.628.629-.725.161-.097.435-.145.822-.145h.774c.291 0 .532.08.726.242.194.161.29.37.29.629 0 .677-.435 1.5-1.306 2.468-.839.935-2.016 1.757-3.532 2.467-1.516.677-3.226 1.016-5.129 1.016zm7.742-14.563v-.194c0-2.484-.71-4.532-2.129-6.145-1.387-1.612-3.258-2.419-5.613-2.419-2.354 0-4.225.807-5.612 2.42-1.355 1.612-2.032 3.66-2.032 6.144v.194h15.386zm9.148 14.079a.927.927 0 01-.677-.29.927.927 0 01-.29-.677c0-.323.129-.645.387-.968l8.515-10.935-8.08-10.354c-.258-.322-.387-.645-.387-.967a.93.93 0 01.29-.678.93.93 0 01.678-.29h1.016c.29 0 .5.064.629.193.161.097.355.275.58.533l7.258 9.338 7.257-9.29c.033-.032.113-.13.242-.29.129-.162.275-.275.436-.339a1.01 1.01 0 01.532-.145h.968c.258 0 .484.097.677.29.194.194.29.42.29.678 0 .322-.129.645-.387.967l-8.177 10.5 8.516 10.789c.258.323.387.645.387.968a.93.93 0 01-.29.677.93.93 0 01-.678.29h-1.016c-.451 0-.854-.242-1.209-.726l-7.645-9.773-7.644 9.774c-.226.258-.42.451-.581.58-.129.097-.339.145-.629.145h-.968zm47.96.484c-2.097 0-3.871-.355-5.323-1.064-1.419-.71-2.499-1.516-3.241-2.42-.71-.903-1.065-1.628-1.065-2.177 0-.29.113-.516.339-.677.226-.194.468-.29.726-.29h.726c.225 0 .403.048.532.145.161.064.338.226.532.484.71 1 1.564 1.79 2.564 2.37 1.032.549 2.436.823 4.21.823 2 0 3.612-.371 4.838-1.113 1.226-.774 1.839-1.87 1.839-3.29 0-.871-.258-1.58-.775-2.129-.483-.548-1.29-1.016-2.419-1.403-1.096-.42-2.741-.887-4.935-1.403-2.871-.645-4.838-1.532-5.903-2.661-1.032-1.13-1.548-2.565-1.548-4.306 0-1.194.323-2.323.968-3.387.677-1.065 1.661-1.936 2.951-2.613C169.711.34 171.291 0 173.13 0c1.935 0 3.564.339 4.886 1.016 1.355.645 2.355 1.403 3 2.274.678.871 1.016 1.58 1.016 2.129a.92.92 0 01-.338.726 1.097 1.097 0 01-.726.242h-.726c-.451 0-.806-.21-1.064-.63-.645-.967-1.387-1.693-2.226-2.177-.806-.516-2.08-.774-3.822-.774-1.871 0-3.29.387-4.258 1.161-.968.775-1.451 1.79-1.451 3.049 0 .774.193 1.419.58 1.935.387.516 1.113 1 2.177 1.451 1.065.42 2.613.855 4.645 1.307 3 .677 5.113 1.58 6.338 2.71 1.226 1.128 1.839 2.628 1.839 4.499a6.337 6.337 0 01-1.113 3.629c-.742 1.096-1.838 1.967-3.29 2.612-1.451.646-3.193.968-5.225.968zm-17.809 4.691c.322 0 .58.096.774.29.193.194.29.451.29.774v1.839c0 .322-.097.58-.29.774-.194.226-.452.339-.774.339h-1.839c-.322 0-.58-.113-.774-.34-.226-.193-.339-.45-.339-.773v-1.839c0-.323.113-.58.339-.774.194-.194.452-.29.774-.29h1.839zM155.03.48c.323 0 .581.097.775.29.193.194.29.452.29.775v23.03c0 .323-.097.58-.29.774-.194.194-.452.29-.775.29h-.822c-.323 0-.581-.096-.774-.29-.194-.193-.29-.451-.29-.774V1.546c0-.323.096-.581.29-.774.193-.194.451-.29.774-.29h.822z" fill="#fff"/></svg>